inDegrees=no
num_controls=7
num_derivatives=13
num_iterations=138
num_multipliers=7
num_parameters=0
num_slacks=7
num_states=26
objective=0.516757
objective_accelerations=0.039261
objective_balance=0.002195
objective_effort=0.043528
objective_height=0.420125
objective_ligament=0.011648
solver_duration=1844.170521
status=Solve_Succeeded
success=true
DataType=double
version=3
OpenSimVersion=4.5
endheader
time	/jointset/ground_pelvis/pelvis_tilt/value	/jointset/ground_pelvis/pelvis_tx/value	/jointset/ground_pelvis/pelvis_ty/value	/jointset/hip_l/hip_flexion_l/value	/jointset/hip_l/hip_adduction_l/value	/jointset/hip_l/hip_rotation_l/value	/jointset/back/lumbar_extension/value	/jointset/patellofemoral_l/patellar_flexion_l/value	/jointset/knee_l/knee_flexion_l/value	/jointset/knee_l/knee_adduction_l/value	/jointset/knee_l/knee_rotation_l/value	/jointset/ankle_l/ankle_angle_l/value	/jointset/subtalar_l/subtalar_angle_l/value	/jointset/ground_pelvis/pelvis_tilt/speed	/jointset/ground_pelvis/pelvis_tx/speed	/jointset/ground_pelvis/pelvis_ty/speed	/jointset/hip_l/hip_flexion_l/speed	/jointset/hip_l/hip_adduction_l/speed	/jointset/hip_l/hip_rotation_l/speed	/jointset/back/lumbar_extension/speed	/jointset/patellofemoral_l/patellar_flexion_l/speed	/jointset/knee_l/knee_flexion_l/speed	/jointset/knee_l/knee_adduction_l/speed	/jointset/knee_l/knee_rotation_l/speed	/jointset/ankle_l/ankle_angle_l/speed	/jointset/subtalar_l/subtalar_angle_l/speed	/forceset/tau_hip_flexion_l	/forceset/tau_hip_adduction_l	/forceset/tau_hip_rotation_l	/forceset/tau_knee_flexion_l	/forceset/tau_ankle_angle_l	/forceset/tau_subtalar_angle_l	/forceset/tau_lumbar_extension	lambda_cid13_p0	lambda_cid13_p1	lambda_cid13_p2	lambda_cid13_p3	lambda_cid13_p4	lambda_cid13_p5	lambda_cid14_p0	/jointset/ground_pelvis/pelvis_tilt/accel	/jointset/ground_pelvis/pelvis_tx/accel	/jointset/ground_pelvis/pelvis_ty/accel	/jointset/hip_l/hip_flexion_l/accel	/jointset/hip_l/hip_adduction_l/accel	/jointset/hip_l/hip_rotation_l/accel	/jointset/back/lumbar_extension/accel	/jointset/patellofemoral_l/patellar_flexion_l/accel	/jointset/knee_l/knee_flexion_l/accel	/jointset/knee_l/knee_adduction_l/accel	/jointset/knee_l/knee_rotation_l/accel	/jointset/ankle_l/ankle_angle_l/accel	/jointset/subtalar_l/subtalar_angle_l/accel	gamma_cid13_p0	gamma_cid13_p1	gamma_cid13_p2	gamma_cid13_p3	gamma_cid13_p4	gamma_cid13_p5	gamma_cid14_p0
0.5	-0.1196660537220013	-0.05603407855169708	0.8256772590700074	0.8862200484154504	-0.3237790936306059	-0.1248646841698936	-0.7793906962269286	0.7810947446168552	0.7810947446168308	-0.1101923144235986	-0.1745118855927763	0.06807095477660062	-0.007981381978037206	-0.2037874833512684	-0.205385166428765	-0.3344301480922313	1.477690591350163	-0.04175249883505189	0.453512227493773	-0.8398757279313256	1.420500290713832	1.420500290714083	0.129316297271346	0.0001416682177405984	0.2365845200214058	0.02935458201284911	-0.2826944105586799	0.016520109871011	-0.00303561106680095	-0.2083464328355855	0.1135081224371402	0.05379182559406914	0.3309533709038421	-7.997626764080044	-23.48644422545497	5.031969180401096	-9.698114917429384	-704.0404292490033	-80.87305458260337	-15.16378972074549	0.2918311840924213	0.6575484002124152	-0.1105066903132233	-1.438745846483575	0.2213080546657225	-0.3342194553047225	1.737219763301414	-1.062337842731776	-1.06233784273178	-0.2744572800795286	0.02523677379327946	0.0420648702497575	0.2560343491951598	-3.414480029212419e-08	-5.101510313846547e-07	-4.834384628859869e-08	-7.346257162275524e-08	-5.916696258167972e-08	-4.972733738191189e-08	-6.707022109371109e-08
0.51	-0.121689099483943	-0.05805496491503723	0.8223281403015362	0.9009229673321922	-0.3241858698877532	-0.1203477627079908	-0.7877017516605896	0.7952444897815677	0.7952444897815454	-0.1089129968943655	-0.1745102719458809	0.07043824038008639	-0.007675559952358508	-0.2007923199253701	-0.198783667021538	-0.3353200792834989	1.462691562817422	-0.03960238733907243	0.4498019531469567	-0.8222561910446829	1.409241630510986	1.409241630511153	0.1265524021490732	0.0001716009390163652	0.236824208147988	0.0317968385280166	-0.288934323850132	0.01682749670750767	-0.003242881981658968	-0.2109037150095854	0.1138258537107652	0.05417858214788225	0.3369524667427288	-8.108999142047464	-23.59312213032809	5.001242367255917	-9.731055219137096	-707.804355315226	-80.78639217501947	-14.64774203587647	0.307759161022749	0.6627024481974922	-0.06721825946217301	-1.560727542529669	0.2119848897314394	-0.4000046759452623	1.786195814773372	-1.188683897258821	-1.18868389727143	-0.2766646873265532	-0.009543826184174549	0.007644412205750597	0.2364546359399511	-5.468427946270005e-08	-4.003689559096669e-07	1.217665049787997e-07	-4.257820146059866e-08	-7.140904026499757e-08	-4.058012694606557e-08	-7.452174331498817e-08
0.52	-0.1236813135637893	-0.06000958593686115	0.8189723258359667	0.9154698467264342	-0.3245711205914076	-0.1158700586398711	-0.7958342366926987	0.8092754375866121	0.809275437586591	-0.1076611801281599	-0.1745086420412683	0.07280646759050659	-0.00734568869487566	-0.1976211469321028	-0.1921320981255214	-0.3357692875119183	1.446482686850268	-0.0374473881363972	0.4456687487371329	-0.8041616476209332	1.396740818780226	1.396740818780309	0.1238161446657846	0.00014491976113625	0.2367728414083021	0.03416442837368042	-0.2951742371415851	0.01713488354400382	-0.003450152896516262	-0.213460997183586	0.1141435849843898	0.05456533870169488	0.3429515625816147	-8.223640788650627	-23.70014657942133	4.971620473074992	-9.789848551015526	-711.6422252385803	-80.71896816774247	-14.12874144445057	0.3270330975661968	0.6675622979703446	-0.02236209774355713	-1.680715333366394	0.2222855960048731	-0.4188054679062128	1.832221070722843	-1.31076814831466	-1.310768148314671	-0.268929752282664	0.01391399396210446	-0.01614610300386234	0.2411010152944254	-9.774321959301248e-08	-2.372283380568694e-07	4.424598794845966e-07	1.429434011307954e-08	-1.058378237614194e-07	-2.860602899575655e-08	-9.406808420790239e-08
0.53	-0.1256409334020469	-0.06189749350943897	0.8156142432565842	0.9298485774414375	-0.324935011302155	-0.1114343775621899	-0.8037834395320222	0.8231751304199253	0.8231751304199502	-0.1064378268816879	-0.1745066775054678	0.07517266226145838	-0.006992791658235084	-0.1942748288774289	-0.1854466295045379	-0.3357714258746699	1.429066385304003	-0.0353317683357762	0.4413982905305797	-0.7856019405678345	1.382993171479597	1.382993171479765	0.1208596473178348	0.0002382710012834918	0.2364170220778082	0.03640009380768548	-0.301411058431958	0.01744345754134124	-0.003655306359717079	-0.2158381566621076	0.1140763390832446	0.0549228970723256	0.348899674784385	-8.464669996560216	-23.77320729666492	4.937550593226609	-9.691831056423498	-715.4665384900089	-80.60571211944858	-13.60740545766201	0.3426171628189111	0.6694660103557707	0.02220588361990678	-1.801664088181172	0.2059833143903655	-0.4416403062750004	1.879392473991397	-1.437428614397902	-1.437428614385106	-0.3082458053008524	0.005711131852959643	-0.05266329431152963	0.2125194158886823	-1.170665855216344e-07	-1.289067699156605e-07	6.088651708409239e-07	4.577983204637449e-08	-1.183897433572168e-07	-1.589233824491892e-08	-1.009258109811644e-07
0.54	-0.1275662528590779	-0.06371846102256828	0.8122584084114065	0.9440472298363927	-0.3252777891864365	-0.1070434959284236	-0.8115447359105372	0.8369312136615404	0.8369312136616112	-0.1052438858245462	-0.1745040463687033	0.0775338260498573	-0.006617993945567434	-0.1907610706867179	-0.1787440862358153	-0.3353197406709912	1.410467022840752	-0.03322482284316852	0.4367088599542217	-0.7665803554592159	1.36801890044053	1.368018900440783	0.1179337067998964	0.0002782399539077073	0.2357666648977391	0.03854456357909593	-0.3076478797223327	0.01775203153867747	-0.003860459822924431	-0.2182153161406296	0.114009093182099	0.05528045544295509	0.3548477869871544	-8.709218245621628	-23.84667489407851	4.904714634937854	-9.62500660724916	-719.3715982200184	-80.5296194106634	-13.08449422257121	0.3605211247736346	0.6709772275181488	0.0684026155425161	-1.917327516763526	0.2205507344022117	-0.5025999418671523	1.92459668182681	-1.556092896002462	-1.556092896002464	-0.262818386280385	0.003237536457499957	-0.07505367291889527	0.2228618827755023	-1.101293161632794e-07	-8.123606528514591e-08	6.045687531808145e-07	4.917752437754297e-08	-1.067374731055147e-07	-2.360374608390063e-09	-9.37450710688535e-08
0.55	-0.1294556627157541	-0.06547238040941157	0.8089093600247078	0.9580541351501899	-0.3255995444862105	-0.1027013007503322	-0.8191136956457793	0.8505314971045382	0.8505314971045298	-0.1040791889594251	-0.1745010625215866	0.07988701558533985	-0.006222218162868785	-0.1870965933603345	-0.1720427804792969	-0.3344132175256977	1.390723852616429	-0.03113507302226114	0.4316751458343985	-0.7471566149367732	1.351835224863397	1.351835224863448	0.1149917332570971	0.0003132859163327528	0.2348186430654577	0.040585607705236	-0.3134724641553901	0.01796387455975502	-0.004048273135132119	-0.2207688400109976	0.1140741218235162	0.05546203797717491	0.3603939259964565	-8.908210659399698	-23.84803514902053	4.856204518100412	-9.492790970885837	-723.0795240561077	-80.35345575460454	-12.56086549957005	0.3730450435083672	0.6692690539206567	0.1132649591417481	-2.031354774590959	0.2017855776425118	-0.5120953323690438	1.95950923531557	-1.679871417257915	-1.679871417288237	-0.3119691722456574	0.002971246605140347	-0.1125650748806218	0.1909163186736752	-1.0302991375301e-07	-4.156812166252514e-08	5.950338977665247e-07	5.129352732457352e-08	-9.554064501335807e-08	9.798807284269454e-09	-8.694000411998932e-08
0.5600000000000001	-0.1313077009977789	-0.06715937437784927	0.805571674428486	0.9718579001618788	-0.325900682593434	-0.09841111035050479	-0.8264867686762245	0.8639638704860272	0.8639638704859369	-0.1029443282965254	-0.1744978615907519	0.08222914717520001	-0.005806793810680656	-0.1832867557564444	-0.1653590025546992	-0.333047182575646	1.369838962419134	-0.0291013843330531	0.4263079043014094	-0.7274030144998278	1.334436888138695	1.334436888138545	0.1119664663556593	0.0003216566975630436	0.2335550757732621	0.04247427747699273	-0.3192970485884485	0.01817571758083202	-0.004236086447343105	-0.2233223638813656	0.1141391504649334	0.05564362051139418	0.3659400650057579	-9.111657209812552	-23.84947910917079	4.808694664640316	-9.388318997126209	-726.8801774734673	-80.21314807853497	-12.03749668641192	0.3895931802749951	0.6674716611340157	0.1603049764941937	-2.145671511358039	0.2093385080623437	-0.5693054245003492	1.990568664727389	-1.799025125516155	-1.799025125516168	-0.279477058008107	-0.002097499781452099	-0.1381627649017421	0.1923870118988378	-9.573595168044356e-08	-1.150349124937671e-08	5.792129170472189e-07	5.18715030106386e-08	-8.489034751265585e-08	2.031065108428582e-08	-8.058574472726118e-08
0.5700000000000001	-0.1331209874472145	-0.06877966291404362	0.8022499482813954	0.9854472694709582	-0.3261816901315078	-0.09417624482562985	-0.8336607243938475	0.8772162760517836	0.8772162760516992	-0.101839960587743	-0.1744946320854085	0.08455711360530876	-0.005373152175465792	-0.1793510419276268	-0.1587057890848327	-0.3312204896572015	1.347852917934789	-0.02710852436247896	0.4206032513337296	-0.7073428346706944	1.315845595440936	1.315845595440676	0.1089030124614399	0.000316677696577669	0.2319871171415241	0.04422988006077541	-0.3248447839676757	0.01828593538443265	-0.004400638514282015	-0.2259248773781564	0.1141887909657451	0.05574479166213001	0.3712099444355103	-9.315363512936635	-23.8144831721162	4.753693704317672	-9.219230150081168	-730.526526213882	-80.03772928550219	-11.51541865971718	0.3984733702268043	0.6631939695085768	0.2054692541250484	-2.25238152104689	0.1929200726676693	-0.5804085703623155	2.020536795117043	-1.918960379374986	-1.918960379391275	-0.3203731855885706	-0.0007204576756646995	-0.1737724971255627	0.1634538324478391	-8.781644678451221e-08	1.423133336756506e-08	5.567829008547768e-07	5.120719998388624e-08	-7.390733524632639e-08	2.922531953915341e-08	-7.396033864800553e-08
0.58	-0.1348943341811533	-0.07033362975962018	0.7989488126244103	0.9988113162143792	-0.3264430370036536	-0.09000029849792383	-0.8406327194825571	0.8902768128830687	0.890276812882989	-0.1007663461439938	-0.1744916568415595	0.08686786843213698	-0.004922693124247136	-0.1752988126571437	-0.1520946644311419	-0.3289290845545389	1.324774449287478	-0.02516925114739582	0.4145240648676287	-0.6870108887171332	1.296063141244413	1.296063141244045	0.1058158133488316	0.000270804398848918	0.2301127551171568	0.04583776067775232	-0.3303925193469038	0.01839615318803274	-0.004565190581215175	-0.2285273908749476	0.1142384314665569	0.05584596281286516	0.376479823865262	-9.524330922238072	-23.77940275472904	4.699635490503515	-9.073981046865935	-734.2750005554071	-79.89674914243128	-10.9957031350636	0.4128962686080728	0.6590538978988466	0.2532474133378203	-2.364156343951354	0.1986211569641436	-0.6442121241845939	2.044921889612899	-2.037257425268745	-2.037257425268747	-0.2842261016859156	-0.01027635913012936	-0.1994434434276067	0.162842618537683	-7.908228146745465e-08	3.432734113363299e-08	5.257457686973207e-07	4.892504561020889e-08	-6.249102002941274e-08	3.605994568405977e-08	-6.698181130257461e-08
0.59	-0.1366265774794375	-0.07182173394952629	0.7956728899072724	1.011939290386591	-0.3266852043970764	-0.08588689328532435	-0.8474001282565053	0.9031338053860695	0.9031338053860649	-0.09972361036505925	-0.1744892298188039	0.08915846292444249	-0.004456800659840355	-0.1711279645261071	-0.1455366830683259	-0.3261798455586185	1.300648353126607	-0.02327452195766261	0.4081070281060717	-0.6664374583988453	1.275155659299893	1.275155659299525	0.1027244077171487	0.0002127556392945775	0.227963166860531	0.04731680554763497	-0.3356959554098453	0.0184672216863236	-0.004699111080402067	-0.2310062970527741	0.1141148653666945	0.05586616198661843	0.3814705954865908	-9.776188297824605	-23.70096354054836	4.637884137894111	-8.849412064920056	-737.7528621220633	-79.68937807121294	-10.47965095712903	0.4224520583327174	0.6526033453476152	0.2970929793477792	-2.462652378796854	0.1832786485539898	-0.6479986549881654	2.068564753986327	-2.144436008738201	-2.14443600873815	-0.322617959532962	-0.003745911114000468	-0.2291574459787896	0.1367795647057464	-7.039107885118816e-08	5.408898793252793e-08	4.944562569406963e-07	4.681287165887196e-08	-5.169124152566045e-08	4.208904795063585e-08	-5.993349978496004e-08
